{
  "source": "C:\\Users\\Peter\\Desktop\\stuff\\MIUN\\quantitative_research\\video_compression\\videos\\BVI-HD\\BVI-HD_CDVL_videos\\ORIG\\CloudsZoom_1920x1080_60fps.mp4",
  "output": "C:\\Users\\Peter\\Desktop\\stuff\\MIUN\\quantitative_research\\video_compression\\compressed_videos\\BVI-HD\\vp9\\2.5\\CloudsZoom_1920x1080_60fps_vp9.webm",
  "codec": "vp9",
  "ok": "Input #0, mov,mp4,m4a,3gp,3g2,mj2, from 'C:\\Users\\Peter\\Desktop\\stuff\\MIUN\\quantitative_research\\video_compression\\videos\\BVI-HD\\BVI-HD_CDVL_videos\\ORIG\\CloudsZoom_1920x1080_60fps.mp4':\n  Metadata:\n    major_brand     : isom\n    minor_version   : 512\n    compatible_brands: isomiso2avc1mp41\n    encoder         : Lavf54.28.101\n  Duration: 00:00:05.00, start: 0.000000, bitrate: 32589 kb/s\n  Stream #0:0[0x1](und): Video: h264 (High 4:4:4 Predictive) (avc1 / 0x31637661), yuv420p(progressive), 1920x1080, 32586 kb/s, 60 fps, 60 tbr, 60 tbn (default)\n    Metadata:\n      handler_name    : VideoHandler\n      vendor_id       : [0][0][0][0]\n[out#0/webm @ 000002a01ecc4d00] Codec AVOption b:a (set bitrate (in bits/s)) has not been used for any stream. The most likely reason is either wrong type (e.g. a video option with no video streams) or that it is a private option of some decoder which was not actually used for any stream.\nStream mapping:\n  Stream #0:0 -> #0:0 (h264 (native) -> vp9 (libvpx-vp9))\nPress [q] to stop, [?] for help\n[libvpx-vp9 @ 000002a01eff05c0] v1.15.2-100-g40561f514\nOutput #0, webm, to 'C:\\Users\\Peter\\Desktop\\stuff\\MIUN\\quantitative_research\\video_compression\\compressed_videos\\BVI-HD\\vp9\\2.5\\CloudsZoom_1920x1080_60fps_vp9.webm':\n  Metadata:\n    major_brand     : isom\n    minor_version   : 512\n    compatible_brands: isomiso2avc1mp41\n    encoder         : Lavf62.3.100\n  Stream #0:0(und): Video: vp9, yuv420p(tv, progressive), 1920x1080, q=2-31, 2500 kb/s, 60 fps, 1k tbn (default)\n    Metadata:\n      encoder         : Lavc62.11.100 libvpx-vp9\n      handler_name    : VideoHandler\n      vendor_id       : [0][0][0][0]\n    Side data:\n      cpb: bitrate max/min/avg: 0/0/0 buffer size: 2500000 vbv_delay: N/A\nframe=    8 fps=0.0 q=33.0 size=       1KiB time=00:00:00.13 bitrate=  38.0kbits/s speed=0.265x elapsed=0:00:00.50    \nframe=   18 fps= 18 q=17.0 size=       1KiB time=00:00:00.30 bitrate=  16.9kbits/s speed=0.293x elapsed=0:00:01.02    \nframe=   26 fps= 17 q=11.0 size=       1KiB time=00:00:00.43 bitrate=  11.7kbits/s speed=0.281x elapsed=0:00:01.53    \nframe=   35 fps= 17 q=21.0 size=       1KiB time=00:00:00.58 bitrate=   8.7kbits/s speed=0.283x elapsed=0:00:02.06    \nframe=   43 fps= 17 q=10.0 size=       1KiB time=00:00:00.71 bitrate=   7.1kbits/s speed=0.277x elapsed=0:00:02.58    \nframe=   51 fps= 16 q=20.0 size=       1KiB time=00:00:00.85 bitrate=   6.0kbits/s speed=0.273x elapsed=0:00:03.11    \nframe=   60 fps= 17 q=10.0 size=       1KiB time=00:00:01.00 bitrate=   5.1kbits/s speed=0.275x elapsed=0:00:03.63    \nframe=   70 fps= 17 q=19.0 size=       1KiB time=00:00:01.16 bitrate=   4.3kbits/s speed=0.28x elapsed=0:00:04.16    \nframe=   79 fps= 17 q=18.0 size=       1KiB time=00:00:01.31 bitrate=   3.8kbits/s speed=0.28x elapsed=0:00:04.70    \nframe=   87 fps= 17 q=10.0 size=       1KiB time=00:00:01.45 bitrate=   3.5kbits/s speed=0.278x elapsed=0:00:05.21    \nframe=   96 fps= 17 q=18.0 size=       1KiB time=00:00:01.60 bitrate=   3.2kbits/s speed=0.279x elapsed=0:00:05.74    \nframe=  106 fps= 17 q=10.0 size=       1KiB time=00:00:01.76 bitrate=   2.9kbits/s speed=0.282x elapsed=0:00:06.27    \nframe=  114 fps= 17 q=19.0 size=       1KiB time=00:00:01.90 bitrate=   2.7kbits/s speed=0.28x elapsed=0:00:06.78    \nframe=  123 fps= 17 q=20.0 size=       1KiB time=00:00:02.05 bitrate=   2.5kbits/s speed=0.281x elapsed=0:00:07.30    \nframe=  133 fps= 17 q=11.0 size=     512KiB time=00:00:02.21 bitrate=1892.2kbits/s speed=0.283x elapsed=0:00:07.82    \nframe=  142 fps= 17 q=10.0 size=     512KiB time=00:00:02.36 bitrate=1772.2kbits/s speed=0.284x elapsed=0:00:08.34    \nframe=  151 fps= 17 q=19.0 size=     512KiB time=00:00:02.51 bitrate=1666.6kbits/s speed=0.284x elapsed=0:00:08.86    \nframe=  159 fps= 17 q=10.0 size=     512KiB time=00:00:02.65 bitrate=1582.8kbits/s speed=0.282x elapsed=0:00:09.40    \nframe=  167 fps= 17 q=17.0 size=     512KiB time=00:00:02.78 bitrate=1506.9kbits/s speed=0.281x elapsed=0:00:09.90    \nframe=  176 fps= 17 q=5.0 size=     512KiB time=00:00:02.93 bitrate=1429.9kbits/s speed=0.281x elapsed=0:00:10.43    \nframe=  186 fps= 17 q=18.0 size=     512KiB time=00:00:03.10 bitrate=1353.0kbits/s speed=0.283x elapsed=0:00:10.95    \nframe=  195 fps= 17 q=20.0 size=     512KiB time=00:00:03.25 bitrate=1290.6kbits/s speed=0.283x elapsed=0:00:11.47    \nframe=  204 fps= 17 q=20.0 size=     512KiB time=00:00:03.40 bitrate=1233.6kbits/s speed=0.283x elapsed=0:00:12.01    \nframe=  213 fps= 17 q=18.0 size=     512KiB time=00:00:03.55 bitrate=1181.5kbits/s speed=0.283x elapsed=0:00:12.53    \nframe=  223 fps= 17 q=19.0 size=     512KiB time=00:00:03.71 bitrate=1128.5kbits/s speed=0.285x elapsed=0:00:13.05    \nframe=  232 fps= 17 q=18.0 size=     512KiB time=00:00:03.86 bitrate=1084.7kbits/s speed=0.284x elapsed=0:00:13.59    \nframe=  241 fps= 17 q=21.0 size=     512KiB time=00:00:04.01 bitrate=1044.2kbits/s speed=0.285x elapsed=0:00:14.11    \nframe=  251 fps= 17 q=13.0 size=     512KiB time=00:00:04.18 bitrate=1002.6kbits/s speed=0.286x elapsed=0:00:14.64    \nframe=  261 fps= 17 q=18.0 size=    1280KiB time=00:00:04.35 bitrate=2410.5kbits/s speed=0.287x elapsed=0:00:15.15    \nframe=  270 fps= 17 q=19.0 size=    1280KiB time=00:00:04.50 bitrate=2330.2kbits/s speed=0.287x elapsed=0:00:15.69    \nframe=  276 fps= 17 q=19.0 size=    1280KiB time=00:00:04.60 bitrate=2279.5kbits/s speed=0.284x elapsed=0:00:16.21    \nframe=  276 fps= 16 q=19.0 size=    1280KiB time=00:00:04.60 bitrate=2279.5kbits/s speed=0.275x elapsed=0:00:16.74    \nframe=  276 fps= 16 q=19.0 size=    1280KiB time=00:00:04.60 bitrate=2279.5kbits/s speed=0.266x elapsed=0:00:17.27    \n[out#0/webm @ 000002a01ecc4d00] video:1634KiB audio:0KiB subtitle:0KiB other streams:0KiB global headers:0KiB muxing overhead: 0.169956%\nframe=  300 fps= 17 q=15.0 Lsize=    1637KiB time=00:00:05.00 bitrate=2682.0kbits/s speed=0.287x elapsed=0:00:17.39    \n",
  "seconds": 17.558782815933228,
  "probe_out": {}
}